<svg xmlns="http://www.w3.org/2000/svg" width="1200" height="630" viewBox="0 0 1200 630">
  <rect width="1200" height="630" fill="#07080A"/>
  <defs>
    <linearGradient id="g1" x1="0%" y1="0%" x2="100%" y2="100%">
      <stop offset="0%" stop-color="#34d399"/>
      <stop offset="100%" stop-color="#14b8a6"/>
    </linearGradient>
    <linearGradient id="g2" x1="0%" y1="0%" x2="100%" y2="0%">
      <stop offset="0%" stop-color="#6ee7b7"/>
      <stop offset="50%" stop-color="#99f6e4"/>
      <stop offset="100%" stop-color="#6ee7b7"/>
    </linearGradient>
    <radialGradient id="glow" cx="50%" cy="50%" r="50%">
      <stop offset="0%" stop-color="#34d399" stop-opacity="0.08"/>
      <stop offset="100%" stop-color="#34d399" stop-opacity="0"/>
    </radialGradient>
  </defs>
  <circle cx="600" cy="315" r="400" fill="url(#glow)"/>
  <rect x="540" y="120" width="120" height="120" rx="28" fill="url(#g1)"/>
  <g transform="translate(570, 150)" fill="none" stroke="white" stroke-width="3.5" stroke-linecap="round" stroke-linejoin="round">
    <path d="M3 17.5V12.5a5 5 0 0 1 5-5h5"/>
    <path d="M42.5 7.5h5a5 5 0 0 1 5 5v5"/>
    <path d="M52.5 42.5v5a5 5 0 0 1-5 5h-5"/>
    <path d="M17.5 52.5h-5a5 5 0 0 1-5-5v-5"/>
    <line x1="17.5" y1="30" x2="42.5" y2="30"/>
  </g>
  <text x="600" y="310" text-anchor="middle" fill="white" font-family="-apple-system,BlinkMacSystemFont,Segoe UI,Helvetica,Arial,sans-serif" font-size="64" font-weight="700" letter-spacing="-1">Sign in with your face.</text>
  <text x="600" y="370" text-anchor="middle" fill="rgba(255,255,255,0.4)" font-family="-apple-system,BlinkMacSystemFont,Segoe UI,Helvetica,Arial,sans-serif" font-size="28" font-weight="400">Passwordless authentication — any device, any browser</text>
  <rect x="490" y="430" width="220" height="48" rx="24" fill="url(#g1)"/>
  <text x="600" y="461" text-anchor="middle" fill="#07080A" font-family="-apple-system,BlinkMacSystemFont,Segoe UI,Helvetica,Arial,sans-serif" font-size="18" font-weight="600">FACESMASH.APP</text>
  <text x="600" y="560" text-anchor="middle" fill="rgba(255,255,255,0.15)" font-family="-apple-system,BlinkMacSystemFont,Segoe UI,Helvetica,Arial,sans-serif" font-size="16" letter-spacing="3" font-weight="400">BY EVERJUST</text>
</svg>
